<svg width="20" height="20" viewBox="0 0 20 20" fill="none" xmlns="http://www.w3.org/2000/svg">
<path d="M9 6C9 5.44771 9.44771 5 10 5C10.5523 5 11 5.44771 11 6C11 6.55229 10.5523 7 10 7C9.44771 7 9 6.55229 9 6Z" fill="white"/>
<path d="M10 15C10.4142 15 10.75 14.6642 10.75 14.25V9.25C10.75 8.83579 10.4142 8.5 10 8.5C9.58579 8.5 9.25 8.83579 9.25 9.25V14.25C9.25 14.6642 9.58579 15 10 15Z" fill="white"/>
<path fill-rule="evenodd" clip-rule="evenodd" d="M19.75 10C19.75 15.3848 15.3848 19.75 10 19.75C4.61522 19.75 0.25 15.3848 0.25 10C0.25 4.61522 4.61522 0.25 10 0.25C15.3848 0.25 19.75 4.61522 19.75 10ZM18.25 10C18.25 14.5563 14.5563 18.25 10 18.25C5.44365 18.25 1.75 14.5563 1.75 10C1.75 5.44365 5.44365 1.75 10 1.75C14.5563 1.75 18.25 5.44365 18.25 10Z" fill="white"/>
</svg>
