<svg width="24" height="24" viewBox="0 0 24 24" fill="none" xmlns="http://www.w3.org/2000/svg">
<path d="M9.81221 6.94706L8.23259 4.25864C7.92384 3.73317 7.25386 3.55364 6.75259 3.90029C5.76631 4.58235 4.29637 5.7789 3.9307 7.05819C3.36307 9.04406 5.40933 13.7734 8.19136 16.5555C10.9735 19.3377 15.4616 21.1424 17.4475 20.575C18.7268 20.2095 19.9236 18.7402 20.6059 17.7541C20.9528 17.2528 20.7733 16.5827 20.2477 16.2739L17.5592 14.6942C17.0492 14.3945 16.3941 14.5425 16.0624 15.0323L15.3233 16.1237C15.0035 16.596 14.3825 16.7476 13.9047 16.436C13.135 15.9342 11.937 15.0645 10.6891 13.8166C9.44136 12.5689 8.57176 11.371 8.06989 10.6014C7.75822 10.1234 7.90995 9.50227 8.38254 9.18248L9.47378 8.44406C9.96382 8.11246 10.112 7.45721 9.81221 6.94706Z" fill="#2E3750"/>
</svg>
