<svg width="20" height="20" viewBox="0 0 20 20" fill="none" xmlns="http://www.w3.org/2000/svg">
<path d="M6.03769 7.09835C5.74479 6.80546 5.74479 6.33058 6.03769 6.03769C6.33058 5.7448 6.80545 5.7448 7.09835 6.03769L9.75 8.68934L12.4016 6.03769C12.6945 5.7448 13.1694 5.7448 13.4623 6.03769C13.7552 6.33058 13.7552 6.80546 13.4623 7.09835L10.8107 9.75L13.4623 12.4017C13.7552 12.6945 13.7552 13.1694 13.4623 13.4623C13.1694 13.7552 12.6945 13.7552 12.4016 13.4623L9.75 10.8107L7.09835 13.4623C6.80545 13.7552 6.33058 13.7552 6.03769 13.4623C5.74479 13.1694 5.74479 12.6945 6.03769 12.4017L8.68934 9.75L6.03769 7.09835Z" fill="#706F94"/>
<path fill-rule="evenodd" clip-rule="evenodd" d="M19.5 9.75C19.5 15.1348 15.1348 19.5 9.75 19.5C4.36522 19.5 0 15.1348 0 9.75C0 4.36522 4.36522 0 9.75 0C15.1348 0 19.5 4.36522 19.5 9.75ZM18 9.75C18 14.3063 14.3063 18 9.75 18C5.19365 18 1.5 14.3063 1.5 9.75C1.5 5.19365 5.19365 1.5 9.75 1.5C14.3063 1.5 18 5.19365 18 9.75Z" fill="#706F94"/>
</svg>
