<svg width="22" height="20" viewBox="0 0 22 20" fill="#2E3750" xmlns="http://www.w3.org/2000/svg">
    <path d="M5 6.25C5 5.83579 5.33579 5.5 5.75 5.5H16.25C16.6642 5.5 17 5.83579 17 6.25C17 6.66421 16.6642 7 16.25 7H5.75C5.33579 7 5 6.66421 5 6.25Z"/>
    <path d="M5.75 9.25C5.33579 9.25 5 9.58579 5 10C5 10.4142 5.33579 10.75 5.75 10.75H11C11.4142 10.75 11.75 10.4142 11.75 10C11.75 9.58579 11.4142 9.25 11 9.25H5.75Z" />
    <path fill-rule="evenodd" clip-rule="evenodd" d="M0.5 4C0.5 1.92893 2.17893 0.25 4.25 0.25H17.75C19.8211 0.25 21.5 1.92893 21.5 4V12.25C21.5 14.3211 19.8211 16 17.75 16H12L7.4 19.45C6.41115 20.1916 5 19.4861 5 18.25V16H4.25C2.17893 16 0.5 14.3211 0.5 12.25V4ZM4.25 1.75C3.00736 1.75 2 2.75736 2 4V12.25C2 13.4926 3.00736 14.5 4.25 14.5H6.5V18.25L11.5 14.5H17.75C18.9926 14.5 20 13.4926 20 12.25V4C20 2.75736 18.9926 1.75 17.75 1.75H4.25Z" />
</svg>