<svg width="26" height="18" viewBox="0 0 26 18" fill="none" xmlns="http://www.w3.org/2000/svg">
<path d="M3.34606 17.3913H21.8712C24.0872 17.3913 25.2174 16.3386 25.2174 14.2331V6.40067H0V14.2331C0 16.3386 1.13012 17.3913 3.34606 17.3913ZM4.38755 14.2331C3.76708 14.2331 3.34606 13.833 3.34606 13.2645V11.3696C3.34606 10.8011 3.76708 10.4011 4.38755 10.4011H7.02451C7.64498 10.4011 8.066 10.8011 8.066 11.3696V13.2645C8.066 13.833 7.64498 14.2331 7.02451 14.2331H4.38755ZM0 4.08464H25.2174V3.13716C25.2174 1.05275 24.0872 0 21.8712 0H3.34606C1.13012 0 0 1.03169 0 3.13716V4.08464Z" fill="#4C3E69"/>
</svg>
