<svg width="24" height="24" viewBox="0 0 24 24" fill="none" xmlns="http://www.w3.org/2000/svg">
<path
    d="M2.25 6.25C2.25 5.83579 2.58579 5.5 3 5.5H21C21.4142 5.5 21.75 5.83579 21.75 6.25C21.75 6.66421 21.4142 7 21 7H3C2.58579 7 2.25 6.66421 2.25 6.25Z"
    fill="#1890ff"
  />
<path
    d="M2.25 12C2.25 11.5858 2.58579 11.25 3 11.25H21C21.4142 11.25 21.75 11.5858 21.75 12C21.75 12.4142 21.4142 12.75 21 12.75H3C2.58579 12.75 2.25 12.4142 2.25 12Z"
    fill="#1890ff"
  />
<path
    d="M3 17C2.58579 17 2.25 17.3358 2.25 17.75C2.25 18.1642 2.58579 18.5 3 18.5H21C21.4142 18.5 21.75 18.1642 21.75 17.75C21.75 17.3358 21.4142 17 21 17H3Z"
    fill="#1890ff"
  />
</svg>
