<svg width="21" height="22" viewBox="0 0 21 22" fill="none" xmlns="http://www.w3.org/2000/svg">
    <path
    d="M3.9375 16.25C3.9375 16.9749 4.52513 17.5625 5.25 17.5625H13.7812C14.1437 17.5625 14.4375 17.8563 14.4375 18.2188C14.4375 18.5812 14.1437 18.875 13.7812 18.875H5.25C3.80025 18.875 2.625 17.6997 2.625 16.25V5.75C2.625 4.30025 3.80025 3.125 5.25 3.125H13.7812C14.1437 3.125 14.4375 3.41881 14.4375 3.78125C14.4375 4.14369 14.1437 4.4375 13.7812 4.4375H5.25C4.52513 4.4375 3.9375 5.02513 3.9375 5.75V16.25Z"
    fill="#1890ff"
  />
    <path
    d="M14.6297 7.25471C14.886 6.99843 15.3015 6.99843 15.5578 7.25471L18.839 10.536C19.0953 10.7922 19.0953 11.2078 18.839 11.464L15.5578 14.7453C15.3015 15.0016 14.886 15.0016 14.6297 14.7453C14.3734 14.489 14.3734 14.0735 14.6297 13.8172L16.7907 11.6562H9.1875C8.82506 11.6562 8.53125 11.3624 8.53125 11C8.53125 10.6376 8.82506 10.3438 9.1875 10.3438H16.7907L14.6297 8.18279C14.3734 7.92651 14.3734 7.51099 14.6297 7.25471Z"
    fill="#1890ff"
  />
</svg>
