<svg width="26" height="27" viewBox="0 0 26 27" fill="none" xmlns="http://www.w3.org/2000/svg">
<path d="M18.1299 11.1735C18.4472 10.844 18.4472 10.3097 18.1299 9.98024C17.8126 9.65073 17.2981 9.65073 16.9808 9.98024L11.8101 15.3498L9.51202 12.9633C9.19472 12.6338 8.68028 12.6338 8.36298 12.9633C8.04567 13.2928 8.04567 13.8271 8.36298 14.1566L11.2356 17.1397C11.5529 17.4692 12.0673 17.4692 12.3846 17.1397L18.1299 11.1735Z" fill="#4A5858"/>
<path fill-rule="evenodd" clip-rule="evenodd" d="M23.5625 13.5C23.5625 19.5579 18.8335 24.4688 13 24.4688C7.16649 24.4688 2.4375 19.5579 2.4375 13.5C2.4375 7.44213 7.16649 2.53125 13 2.53125C18.8335 2.53125 23.5625 7.44213 23.5625 13.5ZM21.9375 13.5C21.9375 18.6259 17.936 22.7812 13 22.7812C8.06395 22.7812 4.0625 18.6259 4.0625 13.5C4.0625 8.37411 8.06395 4.21875 13 4.21875C17.936 4.21875 21.9375 8.37411 21.9375 13.5Z" fill="#4A5858"/>
</svg>
